<svg width="81" height="21" viewBox="0 0 81 21" fill="none" xmlns="http://www.w3.org/2000/svg">
<path d="M4.396 16.112C3.88267 16.112 3.402 16.07 2.954 15.986C2.506 15.8927 2.09067 15.7527 1.708 15.566C1.32533 15.37 0.98 15.132 0.672 14.852L1.106 13.97C1.61 14.39 2.114 14.6887 2.618 14.866C3.13133 15.0433 3.72867 15.132 4.41 15.132C5.20333 15.132 5.81933 14.978 6.258 14.67C6.69667 14.3527 6.916 13.9093 6.916 13.34C6.916 12.9947 6.804 12.7193 6.58 12.514C6.36533 12.2993 6.06667 12.1313 5.684 12.01C5.31067 11.8793 4.886 11.758 4.41 11.646C3.934 11.5433 3.48133 11.4267 3.052 11.296C2.62267 11.156 2.24 10.9833 1.904 10.778C1.57733 10.5727 1.32067 10.3113 1.134 9.994C0.947333 9.67667 0.854 9.28 0.854 8.804C0.854 8.23467 1.00333 7.73533 1.302 7.306C1.60067 6.86733 2.02067 6.52667 2.562 6.284C3.10333 6.04133 3.74267 5.92 4.48 5.92C4.93733 5.92 5.376 5.97133 5.796 6.074C6.216 6.16733 6.60333 6.30733 6.958 6.494C7.322 6.68067 7.644 6.90933 7.924 7.18L7.476 8.062C7.01867 7.66067 6.54733 7.36667 6.062 7.18C5.57667 6.99333 5.04933 6.9 4.48 6.9C3.70533 6.9 3.09867 7.06333 2.66 7.39C2.22133 7.71667 2.002 8.174 2.002 8.762C2.002 9.126 2.1 9.42 2.296 9.644C2.492 9.868 2.76733 10.05 3.122 10.19C3.47667 10.3207 3.88267 10.442 4.34 10.554C4.82533 10.666 5.292 10.7873 5.74 10.918C6.188 11.0487 6.58467 11.212 6.93 11.408C7.28467 11.5947 7.56467 11.842 7.77 12.15C7.97533 12.4487 8.078 12.8313 8.078 13.298C8.078 13.8673 7.92867 14.362 7.63 14.782C7.33133 15.202 6.90667 15.5287 6.356 15.762C5.80533 15.9953 5.152 16.112 4.396 16.112ZM12.7267 16.098C12.0547 16.098 11.4667 15.9487 10.9627 15.65C10.468 15.3513 10.0807 14.9313 9.80066 14.39C9.52999 13.8393 9.39466 13.1907 9.39466 12.444C9.39466 11.7067 9.52999 11.0627 9.80066 10.512C10.0807 9.96133 10.468 9.53667 10.9627 9.238C11.4667 8.93933 12.0547 8.79 12.7267 8.79C13.3987 8.79 13.982 8.93933 14.4767 9.238C14.9807 9.53667 15.368 9.96133 15.6387 10.512C15.9187 11.0627 16.0587 11.7067 16.0587 12.444C16.0587 13.1907 15.9187 13.8393 15.6387 14.39C15.368 14.9313 14.9807 15.3513 14.4767 15.65C13.982 15.9487 13.3987 16.098 12.7267 16.098ZM12.7267 15.16C13.4173 15.16 13.9493 14.9313 14.3227 14.474C14.7053 14.0073 14.8967 13.3307 14.8967 12.444C14.8967 11.576 14.7053 10.9087 14.3227 10.442C13.94 9.97533 13.408 9.742 12.7267 9.742C12.0453 9.742 11.5087 9.97533 11.1167 10.442C10.734 10.9087 10.5427 11.576 10.5427 12.444C10.5427 13.3307 10.7293 14.0073 11.1027 14.474C11.4853 14.9313 12.0267 15.16 12.7267 15.16ZM17.8264 16V10.932C17.8264 10.6053 17.817 10.2787 17.7984 9.952C17.789 9.616 17.761 9.28467 17.7144 8.958H18.7924L18.9464 10.694L18.7924 10.652C18.923 10.036 19.203 9.574 19.6324 9.266C20.071 8.94867 20.561 8.79 21.1024 8.79C21.2237 8.79 21.3357 8.79933 21.4384 8.818C21.5504 8.82733 21.653 8.846 21.7464 8.874L21.7184 9.91C21.5037 9.83533 21.2564 9.798 20.9764 9.798C20.491 9.798 20.099 9.90533 19.8004 10.12C19.511 10.3347 19.2964 10.61 19.1564 10.946C19.0257 11.2727 18.9604 11.618 18.9604 11.982V16H17.8264ZM22.4652 9.854V8.958H26.9872V9.854H22.4652ZM26.9592 14.992V15.958C26.8005 16.0047 26.6419 16.0373 26.4832 16.056C26.3339 16.084 26.1659 16.098 25.9792 16.098C25.3259 16.098 24.8032 15.9113 24.4112 15.538C24.0285 15.1647 23.8372 14.6047 23.8372 13.858V7.152L24.9712 6.746V13.704C24.9712 14.0773 25.0225 14.3667 25.1252 14.572C25.2372 14.7773 25.3865 14.922 25.5732 15.006C25.7599 15.0807 25.9699 15.118 26.2032 15.118C26.3432 15.118 26.4692 15.1087 26.5812 15.09C26.6932 15.0713 26.8192 15.0387 26.9592 14.992ZM28.3537 16V8.958H29.4877V16H28.3537ZM28.2417 5.976H29.6277V7.264H28.2417V5.976ZM31.6897 16V10.932C31.6897 10.6053 31.6803 10.2787 31.6617 9.952C31.6523 9.616 31.6243 9.28467 31.5777 8.958H32.6557L32.7817 10.414L32.6417 10.526C32.8377 9.95667 33.1643 9.52733 33.6217 9.238C34.079 8.93933 34.6063 8.79 35.2037 8.79C36.893 8.79 37.7377 9.71867 37.7377 11.576V16H36.6037V11.632C36.6037 10.9787 36.473 10.5027 36.2117 10.204C35.9503 9.896 35.5397 9.742 34.9797 9.742C34.3263 9.742 33.8037 9.94267 33.4117 10.344C33.0197 10.7453 32.8237 11.2867 32.8237 11.968V16H31.6897ZM42.9731 19.122C41.9091 19.122 40.9851 18.8793 40.2011 18.394L40.3971 17.47C40.8358 17.722 41.2511 17.904 41.6431 18.016C42.0351 18.128 42.4784 18.184 42.9731 18.184C43.6451 18.184 44.1538 18.002 44.4991 17.638C44.8538 17.2833 45.0311 16.7513 45.0311 16.042V14.138L45.1851 13.956C45.0731 14.3293 44.8958 14.656 44.6531 14.936C44.4198 15.2067 44.1304 15.4167 43.7851 15.566C43.4398 15.7153 43.0478 15.79 42.6091 15.79C41.9838 15.79 41.4331 15.6453 40.9571 15.356C40.4904 15.0573 40.1218 14.6467 39.8511 14.124C39.5898 13.6013 39.4591 12.99 39.4591 12.29C39.4591 11.59 39.5898 10.9787 39.8511 10.456C40.1218 9.93333 40.4904 9.52733 40.9571 9.238C41.4331 8.93933 41.9838 8.79 42.6091 8.79C43.2624 8.79 43.8131 8.95333 44.2611 9.28C44.7184 9.59733 45.0264 10.0453 45.1851 10.624L45.0171 10.47V8.958H46.1511V15.944C46.1511 16.9987 45.8804 17.792 45.3391 18.324C44.8071 18.856 44.0184 19.122 42.9731 19.122ZM42.8331 14.838C43.5144 14.838 44.0464 14.614 44.4291 14.166C44.8211 13.7087 45.0171 13.0833 45.0171 12.29C45.0171 11.4967 44.8211 10.876 44.4291 10.428C44.0464 9.97067 43.5144 9.742 42.8331 9.742C42.1424 9.742 41.5964 9.97067 41.1951 10.428C40.8031 10.876 40.6071 11.4967 40.6071 12.29C40.6071 13.0927 40.8031 13.718 41.1951 14.166C41.5964 14.614 42.1424 14.838 42.8331 14.838ZM51.9787 16V5.696H53.1127V10.764L52.9587 10.624C53.1174 10.0453 53.4207 9.59733 53.8687 9.28C54.3167 8.95333 54.8581 8.79 55.4927 8.79C56.1181 8.79 56.6641 8.93933 57.1307 9.238C57.5974 9.53667 57.9614 9.95667 58.2227 10.498C58.4934 11.0393 58.6287 11.6787 58.6287 12.416C58.6287 13.1533 58.4934 13.802 58.2227 14.362C57.9614 14.9127 57.5927 15.342 57.1167 15.65C56.6501 15.9487 56.1087 16.098 55.4927 16.098C54.8581 16.098 54.3167 15.9393 53.8687 15.622C53.4207 15.3047 53.1174 14.852 52.9587 14.264L53.1127 14.11V16H51.9787ZM55.2827 15.16C55.9641 15.16 56.4961 14.922 56.8787 14.446C57.2614 13.9607 57.4527 13.284 57.4527 12.416C57.4527 11.5667 57.2614 10.9087 56.8787 10.442C56.4961 9.97533 55.9641 9.742 55.2827 9.742C54.5827 9.742 54.0461 9.98 53.6727 10.456C53.2994 10.9227 53.1127 11.5853 53.1127 12.444C53.1127 13.312 53.2994 13.984 53.6727 14.46C54.0461 14.9267 54.5827 15.16 55.2827 15.16ZM59.9552 19.178L59.7172 18.296C60.1466 18.1933 60.5059 18.072 60.7952 17.932C61.0939 17.8013 61.3412 17.6287 61.5372 17.414C61.7426 17.1993 61.9199 16.9147 62.0692 16.56L62.5172 15.524L62.7692 15.174L65.3452 8.958H66.4792L63.1892 16.644C62.9372 17.2133 62.6526 17.666 62.3352 18.002C62.0179 18.3473 61.6586 18.6087 61.2572 18.786C60.8652 18.9633 60.4312 19.094 59.9552 19.178ZM62.5312 16.364L59.3672 8.958H60.5572L63.1052 15.174L62.5312 16.364Z" fill="#626262"/>
<g clip-path="url(#clip0_47_3001)">
<path d="M73.8 9.79999L77 13L80.2 9.79999" stroke="#626262" stroke-width="1.2" stroke-linecap="round" stroke-linejoin="round"/>
</g>
<defs>
<clipPath id="clip0_47_3001">
<rect width="4.8" height="8" fill="white" transform="translate(81 9) rotate(90)"/>
</clipPath>
</defs>
</svg>
