<svg width="66" height="21" viewBox="0 0 66 21" fill="none" xmlns="http://www.w3.org/2000/svg">
<path d="M27.232 16V6.032H33.392V6.998H28.366V10.456H33.112V11.422H28.366V16H27.232ZM34.9807 16V8.958H36.1147V16H34.9807ZM34.8687 5.976H36.2547V7.264H34.8687V5.976ZM38.3166 16V5.696H39.4506V16H38.3166ZM40.6585 9.854V8.958H45.1805V9.854H40.6585ZM45.1525 14.992V15.958C44.9939 16.0047 44.8352 16.0373 44.6765 16.056C44.5272 16.084 44.3592 16.098 44.1725 16.098C43.5192 16.098 42.9965 15.9113 42.6045 15.538C42.2219 15.1647 42.0305 14.6047 42.0305 13.858V7.152L43.1645 6.746V13.704C43.1645 14.0773 43.2159 14.3667 43.3185 14.572C43.4305 14.7773 43.5799 14.922 43.7665 15.006C43.9532 15.0807 44.1632 15.118 44.3965 15.118C44.5365 15.118 44.6625 15.1087 44.7745 15.09C44.8865 15.0713 45.0125 15.0387 45.1525 14.992ZM52.3151 15.16C52.0071 15.4493 51.6104 15.678 51.1251 15.846C50.6491 16.014 50.1591 16.098 49.6551 16.098C48.9271 16.098 48.2971 15.9533 47.7651 15.664C47.2424 15.3747 46.8364 14.9593 46.5471 14.418C46.2671 13.8673 46.1271 13.214 46.1271 12.458C46.1271 11.73 46.2671 11.0907 46.5471 10.54C46.8271 9.98933 47.2144 9.56 47.7091 9.252C48.2131 8.944 48.7917 8.79 49.4451 8.79C50.0704 8.79 50.6071 8.93 51.0551 9.21C51.5031 9.48067 51.8437 9.87267 52.0771 10.386C52.3197 10.8993 52.4411 11.5153 52.4411 12.234V12.444H47.1211V11.702H51.7971L51.4331 12.22C51.4517 11.3987 51.2884 10.7687 50.9431 10.33C50.6071 9.89133 50.1124 9.672 49.4591 9.672C48.7777 9.672 48.2411 9.91467 47.8491 10.4C47.4664 10.876 47.2751 11.5387 47.2751 12.388C47.2751 13.3027 47.4757 13.9933 47.8771 14.46C48.2877 14.9267 48.8851 15.16 49.6691 15.16C50.0797 15.16 50.4717 15.0947 50.8451 14.964C51.2277 14.824 51.5917 14.614 51.9371 14.334L52.3151 15.16ZM54.1623 16V10.932C54.1623 10.6053 54.153 10.2787 54.1343 9.952C54.125 9.616 54.097 9.28467 54.0503 8.958H55.1283L55.2823 10.694L55.1283 10.652C55.259 10.036 55.539 9.574 55.9683 9.266C56.407 8.94867 56.897 8.79 57.4383 8.79C57.5596 8.79 57.6716 8.79933 57.7743 8.818C57.8863 8.82733 57.989 8.846 58.0823 8.874L58.0543 9.91C57.8396 9.83533 57.5923 9.798 57.3123 9.798C56.827 9.798 56.435 9.90533 56.1363 10.12C55.847 10.3347 55.6323 10.61 55.4923 10.946C55.3616 11.2727 55.2963 11.618 55.2963 11.982V16H54.1623ZM61.5462 16.098C60.3609 16.098 59.4229 15.7947 58.7322 15.188L59.1102 14.348C59.4836 14.6373 59.8662 14.852 60.2582 14.992C60.6596 15.1227 61.1029 15.188 61.5882 15.188C62.1202 15.188 62.5216 15.0993 62.7922 14.922C63.0722 14.7353 63.2122 14.4693 63.2122 14.124C63.2122 13.844 63.1189 13.6247 62.9322 13.466C62.7456 13.298 62.4376 13.1627 62.0082 13.06L60.8182 12.78C60.2302 12.6493 59.7729 12.416 59.4462 12.08C59.1289 11.744 58.9702 11.3427 58.9702 10.876C58.9702 10.4653 59.0822 10.106 59.3062 9.798C59.5302 9.48067 59.8429 9.23333 60.2442 9.056C60.6456 8.87867 61.1216 8.79 61.6722 8.79C62.1669 8.79 62.6336 8.86933 63.0722 9.028C63.5109 9.18667 63.8796 9.41533 64.1782 9.714L63.8002 10.54C63.4642 10.26 63.1189 10.0547 62.7642 9.924C62.4189 9.784 62.0549 9.714 61.6722 9.714C61.1682 9.714 60.7762 9.812 60.4962 10.008C60.2256 10.204 60.0902 10.47 60.0902 10.806C60.0902 11.0953 60.1742 11.324 60.3422 11.492C60.5196 11.66 60.7996 11.7907 61.1822 11.884L62.3722 12.178C63.0349 12.318 63.5202 12.5513 63.8282 12.878C64.1456 13.1953 64.3042 13.6013 64.3042 14.096C64.3042 14.7027 64.0569 15.188 63.5622 15.552C63.0676 15.916 62.3956 16.098 61.5462 16.098Z" fill="#626262"/>
<path d="M3.75 17.75V8.75M14.25 4.25V7.25V4.25ZM14.25 17.75V10.25V17.75ZM9 4.25V13.25V4.25ZM9 17.75V16.25V17.75ZM3.75 4.25V5.75V4.25Z" stroke="#626262" stroke-width="1.2" stroke-linecap="round"/>
<path d="M12.75 8.75C12.75 9.57843 13.4216 10.25 14.25 10.25C15.0784 10.25 15.75 9.57843 15.75 8.75C15.75 7.92157 15.0784 7.25 14.25 7.25C13.4216 7.25 12.75 7.92157 12.75 8.75Z" stroke="#626262" stroke-width="1.2" stroke-linecap="round"/>
<path d="M7.5 14.75C7.5 15.5784 8.17157 16.25 9 16.25C9.82843 16.25 10.5 15.5784 10.5 14.75C10.5 13.9216 9.82843 13.25 9 13.25C8.17157 13.25 7.5 13.9216 7.5 14.75Z" stroke="#626262" stroke-width="1.2" stroke-linecap="round"/>
<path d="M2.25 7.25C2.25 8.07843 2.92157 8.75 3.75 8.75C4.57843 8.75 5.25 8.07843 5.25 7.25C5.25 6.42157 4.57843 5.75 3.75 5.75C2.92157 5.75 2.25 6.42157 2.25 7.25Z" stroke="#626262" stroke-width="1.2" stroke-linecap="round"/>
</svg>
